<svg id="_310c3e5b-d44f-464b-a9f2-e9edade79978" data-name="310c3e5b-d44f-464b-a9f2-e9edade79978" xmlns="http://www.w3.org/2000/svg" xmlns:xlink="http://www.w3.org/1999/xlink" viewBox="0 0 1140.21 776"><defs><style>.cls-1,.cls-3,.cls-4{fill:#6c63ff;}.cls-1,.cls-17,.cls-2,.cls-5{opacity:0.1;}.cls-1,.cls-14,.cls-15,.cls-16,.cls-17,.cls-4,.cls-5{isolation:isolate;}.cls-14,.cls-4{opacity:0.2;}.cls-18,.cls-6{fill:none;stroke-miterlimit:10;}.cls-6{stroke:#535461;stroke-width:2px;}.cls-7{fill:url(#linear-gradient);}.cls-8{fill:#dfe6f5;}.cls-9{fill:#535461;}.cls-10{fill:#865a61;}.cls-11{fill:#fdc2cc;}.cls-12{fill:#ec7580;}.cls-13{fill:#cbcdda;}.cls-15,.cls-17{fill:#fff;}.cls-15{opacity:0.3;}.cls-16{opacity:0.05;}.cls-18{stroke:#6c63ff;}</style><linearGradient id="linear-gradient" x1="623.53" y1="10.14" x2="623.53" y2="649.98" gradientTransform="matrix(1, 0, 0, -1, -29.89, 716)" gradientUnits="userSpaceOnUse"><stop offset="0" stop-color="gray" stop-opacity="0.25"/><stop offset="0.54" stop-color="gray" stop-opacity="0.12"/><stop offset="1" stop-color="gray" stop-opacity="0.1"/></linearGradient></defs><title>Artboard 1</title><path class="cls-1" d="M468.6,764.57c77.07-42.65,165.11-56.28,251.15-38,121.92,25.92,275.15,15.76,304.83-184.21C1075.27,200.84,862.85,110.7,862.85,110.7S721.59,98.87,638.06,53.83c-118.65-64-254.27-72.15-373.52-18-76.26,34.6-139.06,82.78-149.79,148.93-30,185,19.27,286.93-72.9,347.32S28.45,758.27,99.11,752.53s230.33-68.71,292.55,4.23C413.76,782.63,441.72,779.45,468.6,764.57Z"/><rect class="cls-1" x="516.27" y="150.21" width="318" height="22"/><rect class="cls-1" x="516.27" y="245.21" width="318" height="22"/><rect class="cls-1" x="516.27" y="344.21" width="318" height="22"/><rect class="cls-1" x="544.27" y="93.21" width="20" height="57"/><rect class="cls-1" x="544.27" y="102.21" width="20" height="4"/><rect class="cls-1" x="544.27" y="133.21" width="20" height="4"/><rect class="cls-1" x="574.27" y="93.21" width="20" height="57"/><rect class="cls-1" x="574.27" y="102.21" width="20" height="4"/><rect class="cls-1" x="574.27" y="133.21" width="20" height="4"/><rect class="cls-1" x="604.27" y="93.21" width="20" height="57"/><rect class="cls-1" x="604.27" y="102.21" width="20" height="4"/><rect class="cls-1" x="604.27" y="133.21" width="20" height="4"/><rect class="cls-1" x="634.27" y="93.21" width="20" height="57"/><rect class="cls-1" x="634.27" y="102.21" width="20" height="4"/><rect class="cls-1" x="634.27" y="133.21" width="20" height="4"/><rect class="cls-1" x="664.27" y="93.21" width="20" height="57"/><rect class="cls-1" x="664.27" y="102.21" width="20" height="4"/><rect class="cls-1" x="664.27" y="133.21" width="20" height="4"/><rect class="cls-1" x="694.27" y="93.21" width="20" height="57"/><rect class="cls-1" x="694.27" y="102.21" width="20" height="4"/><rect class="cls-1" x="694.27" y="133.21" width="20" height="4"/><rect class="cls-1" x="724.27" y="93.21" width="20" height="57"/><rect class="cls-1" x="724.27" y="102.21" width="20" height="4"/><rect class="cls-1" x="724.27" y="133.21" width="20" height="4"/><rect class="cls-1" x="726.27" y="287.17" width="20" height="57" transform="translate(-63.39 363.5) rotate(-26.63)"/><rect class="cls-1" x="718.43" y="298.03" width="20" height="4" transform="translate(-57.21 358.33) rotate(-26.63)"/><rect class="cls-1" x="732.31" y="325.75" width="20" height="4" transform="translate(-68.16 367.49) rotate(-26.63)"/><rect class="cls-1" x="544.27" y="189.21" width="20" height="57"/><rect class="cls-1" x="544.27" y="198.21" width="20" height="4"/><rect class="cls-1" x="544.27" y="229.21" width="20" height="4"/><rect class="cls-1" x="574.27" y="189.21" width="20" height="57"/><rect class="cls-1" x="574.27" y="198.21" width="20" height="4"/><rect class="cls-1" x="574.27" y="229.21" width="20" height="4"/><rect class="cls-1" x="604.27" y="189.21" width="20" height="57"/><rect class="cls-1" x="604.27" y="198.21" width="20" height="4"/><rect class="cls-1" x="604.27" y="229.21" width="20" height="4"/><rect class="cls-1" x="729.27" y="189.21" width="20" height="57"/><rect class="cls-1" x="729.27" y="198.21" width="20" height="4"/><rect class="cls-1" x="729.27" y="229.21" width="20" height="4"/><rect class="cls-1" x="759.27" y="189.21" width="20" height="57"/><rect class="cls-1" x="759.27" y="198.21" width="20" height="4"/><rect class="cls-1" x="759.27" y="229.21" width="20" height="4"/><rect class="cls-1" x="789.27" y="189.21" width="20" height="57"/><rect class="cls-1" x="789.27" y="198.21" width="20" height="4"/><rect class="cls-1" x="789.27" y="229.21" width="20" height="4"/><rect class="cls-1" x="544.27" y="287.21" width="20" height="57"/><rect class="cls-1" x="544.27" y="296.21" width="20" height="4"/><rect class="cls-1" x="544.27" y="327.21" width="20" height="4"/><rect class="cls-1" x="574.27" y="287.21" width="20" height="57"/><rect class="cls-1" x="574.27" y="296.21" width="20" height="4"/><rect class="cls-1" x="574.27" y="327.21" width="20" height="4"/><rect class="cls-1" x="604.27" y="287.21" width="20" height="57"/><rect class="cls-1" x="604.27" y="296.21" width="20" height="4"/><rect class="cls-1" x="604.27" y="327.21" width="20" height="4"/><rect class="cls-1" x="634.27" y="287.21" width="20" height="57"/><rect class="cls-1" x="634.27" y="296.21" width="20" height="4"/><rect class="cls-1" x="634.27" y="327.21" width="20" height="4"/><rect class="cls-1" x="664.27" y="287.21" width="20" height="57"/><rect class="cls-1" x="664.27" y="296.21" width="20" height="4"/><rect class="cls-1" x="664.27" y="327.21" width="20" height="4"/><rect class="cls-1" x="694.27" y="287.21" width="20" height="57"/><rect class="cls-1" x="694.27" y="296.21" width="20" height="4"/><rect class="cls-1" x="694.27" y="327.21" width="20" height="4"/><path class="cls-1" d="M774.27,98.29v51.92h-20V94.48Q764.31,96.25,774.27,98.29Z"/><rect class="cls-1" x="754.27" y="102.21" width="20" height="4"/><rect class="cls-1" x="754.27" y="133.21" width="20" height="4"/><path class="cls-1" d="M804.27,105.23v45h-20v-49.8c2.6.57,5.19,1.17,7.78,1.78Q798.19,103.65,804.27,105.23Z"/><path class="cls-1" d="M804.27,105.23v1h-20v-4h7.78Q798.19,103.66,804.27,105.23Z"/><rect class="cls-1" x="784.27" y="133.21" width="20" height="4"/><g class="cls-2"><path class="cls-3" d="M664.66,225.49s-6.06-2.06-9,3.29a9.77,9.77,0,0,0,.13,9.38c1.92,3.46,5.87,8,13.35,7.56,6.35-.34,8.46-5.18,9-9.69a10,10,0,0,0-8.71-11.14,9.88,9.88,0,0,0-4.51.48Z"/><path class="cls-1" d="M657.11,238.65a9.77,9.77,0,0,1-.13-9.38c2.92-5.34,9-3.29,9-3.29l.31-.11a9.86,9.86,0,0,1,7.13.16,9.87,9.87,0,0,0-8.41-.8l-.31.11s-6.06-2.06-9,3.29a9.77,9.77,0,0,0,.13,9.38,14.59,14.59,0,0,0,6.86,6.49A15,15,0,0,1,657.11,238.65Z"/><path class="cls-4" d="M661.53,228.06s2.25,1.77,7.71,0"/><path class="cls-3" d="M661,215.21s3.85,10.44,3.53,13.17l3-.32s-5.14-9.15-3.85-12.85Z"/><path class="cls-4" d="M661,215.21s3.85,10.44,3.53,13.17l3-.32s-5.14-9.15-3.85-12.85Z"/><path class="cls-3" d="M676.78,216.09s-6.07-3.1-8.78-.54-3.13,9.11-3.13,9.11S674.76,226,676.78,216.09Z"/><path class="cls-1" d="M676.78,216.09s-6.07-3.1-8.78-.54-3.13,9.11-3.13,9.11S674.76,226,676.78,216.09Z"/><path class="cls-3" d="M664.86,224.66s1.59-7.6,11.91-8.58"/></g><g class="cls-2"><path class="cls-3" d="M792.66,324.49s-6.06-2.06-9,3.29a9.77,9.77,0,0,0,.13,9.38c1.92,3.46,5.87,8,13.35,7.56,6.35-.34,8.46-5.18,9-9.69a10,10,0,0,0-8.71-11.14,9.88,9.88,0,0,0-4.51.48Z"/><path class="cls-1" d="M785.11,337.65a9.77,9.77,0,0,1-.13-9.38c2.92-5.34,9-3.29,9-3.29l.31-.11a9.86,9.86,0,0,1,7.13.16,9.87,9.87,0,0,0-8.41-.8l-.31.11s-6.06-2.06-9,3.29a9.77,9.77,0,0,0,.13,9.38,14.59,14.59,0,0,0,6.86,6.49A15,15,0,0,1,785.11,337.65Z"/><path class="cls-4" d="M789.53,327.06s2.25,1.77,7.71,0"/><path class="cls-3" d="M789,314.21s3.85,10.44,3.53,13.17l3-.32s-5.14-9.15-3.85-12.85Z"/><path class="cls-4" d="M789,314.21s3.85,10.44,3.53,13.17l3-.32s-5.14-9.15-3.85-12.85Z"/><path class="cls-3" d="M804.78,315.09s-6.07-3.1-8.78-.54-3.13,9.11-3.13,9.11S802.76,325,804.78,315.09Z"/><path class="cls-1" d="M804.78,315.09s-6.07-3.1-8.78-.54-3.13,9.11-3.13,9.11S802.76,325,804.78,315.09Z"/><path class="cls-3" d="M792.86,323.66s1.59-7.6,11.91-8.58"/></g><ellipse class="cls-5" cx="995.02" cy="610.84" rx="54" ry="19.2"/><path class="cls-6" d="M995.06,611s30.81-104.59-5.78-181.58c-15.35-32.31-20.45-68.58-13.36-103.64a277.07,277.07,0,0,1,14.67-48.65"/><path class="cls-3" d="M967.83,228.47c0,12.82,23.21,50,23.21,50s23.21-37.17,23.21-50a23.21,23.21,0,1,0-46.42,0v0Z"/><path class="cls-3" d="M929.46,299.47c7,10.76,46.65,29.35,46.65,29.35s-.72-43.82-7.69-54.58a23.22,23.22,0,1,0-39,25.23Z"/><path class="cls-3" d="M931.11,420.81c11.45,5.77,55.09,1.78,55.09,1.78S963.46,385.13,952,379.36a23.21,23.21,0,1,0-20.9,41.45Z"/><path class="cls-3" d="M953.11,512.33c10.31,7.62,54,11.07,54,11.07S991,482.63,980.72,475a23.21,23.21,0,1,0-27.61,37.32Z"/><path class="cls-3" d="M1024.85,331.3c-9.19,8.93-52,18.18-52,18.18s10.49-42.55,19.68-51.48a23.21,23.21,0,1,1,32.5,33.14c0,.06-.11.11-.16.16Z"/><path class="cls-3" d="M1049.11,438.66c-11.45,5.77-55.09,1.78-55.09,1.78s22.74-37.46,34.19-43.23a23.21,23.21,0,1,1,20.9,41.45Z"/><path class="cls-3" d="M1058.45,546.25c-10.31,7.62-54,11.07-54,11.07s16.08-40.77,26.39-48.39a23.21,23.21,0,0,1,28,37l-.42.31Z"/><ellipse class="cls-5" cx="860.62" cy="555.64" rx="54" ry="19.2"/><path class="cls-6" d="M858.43,558.37s14.43-49-2.71-85.07a77.39,77.39,0,0,1-6.26-48.56A130.37,130.37,0,0,1,856.34,402"/><path class="cls-3" d="M845.67,379.15c0,6,10.87,23.42,10.87,23.42s10.87-17.42,10.87-23.42a10.88,10.88,0,1,0-21.75,0Z"/><path class="cls-3" d="M827.7,412.41c3.26,5,21.86,13.75,21.86,13.75s-.34-20.53-3.6-25.57a10.88,10.88,0,1,0-18.26,11.82Z"/><path class="cls-3" d="M828.48,469.26c5.36,2.7,25.81.84,25.81.84s-10.65-17.55-16-20.26a10.87,10.87,0,0,0-9.79,19.42Z"/><path class="cls-3" d="M838.76,512.14c4.83,3.57,25.3,5.19,25.3,5.19s-7.54-19.1-12.36-22.67a10.88,10.88,0,1,0-12.93,17.49Z"/><path class="cls-3" d="M872.39,427.33c-4.31,4.18-24.38,8.52-24.38,8.52s4.92-19.94,9.22-24.12a10.87,10.87,0,0,1,15.15,15.6h0Z"/><path class="cls-3" d="M883.78,477.63c-5.36,2.7-25.81.84-25.81.84s10.65-17.55,16-20.26a10.87,10.87,0,0,1,9.79,19.42h0Z"/><path class="cls-3" d="M888.11,528c-4.83,3.57-25.3,5.19-25.3,5.19s7.54-19.1,12.36-22.67A10.87,10.87,0,1,1,888.11,528Z"/><path class="cls-7" d="M1138.33,655.85,828.69,491.6H763.76l16.8-139.84A23.18,23.18,0,0,0,760.31,326l-.46-.05-1.74.07h-.17l-236.21,3.59a25.5,25.5,0,0,0-26.62,19.63l-11,80.36-1.59-2.43-.77-1.17c5.81-3.78-5.65-26.25-15.36-43l-.88-1.52c6.16-2.57,13-5,13-5L463.36,367s-13.94-20.18-28.78-36.55c10-62.62-11.12-135-11.37-136l-.56.15a29.89,29.89,0,0,0,4.46-15.8h0A30,30,0,0,0,417,156.32c-.59-5.36-1.44-10.88-2.66-16.69h0c-.22-1-.45-2.11-.7-3.17-1.14-5-2.29-10-3.8-14.9a75.82,75.82,0,0,0-3.89-10.21c-7.89-16.67-24.12-28.59-41.9-32.79-9.15-2.16-18.53,1.19-27.07-.41-4.3-.79-8.15-4.92-12.34-6.59-5.31-2.12-11.06-3.11-16.68-4-7-1.17-14.27-2.33-21.24-.81-11.5,2.5-20.27,11.82-26.72,21.66s-11.46,20.74-19.43,29.4c-5.33,5.8-11.89,10.46-16.64,16.74-7,9.24-9.43,21-11.68,32.42-2.78,14.05-5.56,28.3-5.5,42.57,0,3.31,0,6.63.34,10,.73,8.52,2.67,16.92,3.13,25.45,0,.92.07,1.84.09,2.76-.1,15.61-4.71,31-9.29,46-1.46,4.77-2.94,9.58-4.67,14.28-9.2.78-18,2.62-24.71,6.24-24.52,13.12-43.39,42.38-43.39,42.38l-35.87,33s14.16,6.61,20.77,17.94a8.29,8.29,0,0,0,.81,1.13l-.52,1.2L92.37,458.51s13.22,9.44,33,7.55a24.69,24.69,0,0,1,9.6.7c0,.6-.06,1.21-.08,1.85-1.21,27.83-1.85,88.81,12.55,130l-32.54,38-65,19.25-2.83,50H1140.22ZM200.84,469.4A39.67,39.67,0,0,1,209,472v34.76c-1.72-12.28-4.11-24.86-7.44-35.32C201.3,470.74,201.11,470.07,200.84,469.4Zm187.69,66.89v-.36a17.52,17.52,0,0,1,.49-3.6,10.22,10.22,0,0,1,2.61-4.86c2.41-2.41,4.9-5,7.39-7.81a36.31,36.31,0,0,0,6.54,10.81c3.2,3.57,10.35,6.78,20.39,9.68a369.74,369.74,0,0,0-37.42-3.86Zm81.61-4.8-32.68,9.67C422,537.7,411,533.74,407,529.16A34.91,34.91,0,0,1,400.43,518c11.66-13.52,23-31.71,25.6-56.55.07-.65.12-1.32.18-2a65.47,65.47,0,0,0,10-7l.59,1.38a175.84,175.84,0,0,0,36.65,53.58ZM421.7,196.06c2.57,9.27,20,74.9,11.26,132.61-5.44-5.86-10.93-11.1-15.85-14.55a30.51,30.51,0,0,0-3.65-2.17c-1.09-10.58-1.59-21.55-1.67-32.42.1-13.46.9-26.81,2-39.51,1.19-13.46,2.59-26.3,3.46-38.93A30,30,0,0,0,421.7,196.06Z"/><path class="cls-8" d="M405.75,212.22h-8.53v-59h8.53a24.57,24.57,0,0,1,24.56,24.56v9.82a24.57,24.57,0,0,1-24.5,24.62Z"/><rect class="cls-9" x="389.98" y="153.27" width="14.48" height="58.95" rx="6.03" ry="6.03"/><g class="cls-2"><path d="M405.75,212.22h-8.53v-59h8.53a24.57,24.57,0,0,1,24.56,24.56v9.82a24.57,24.57,0,0,1-24.5,24.62Z"/><rect x="389.98" y="153.27" width="14.48" height="58.95" rx="6.03" ry="6.03"/></g><rect class="cls-10" x="260.72" y="184.45" width="149.09" height="154.65"/><rect class="cls-5" x="260.72" y="163.15" width="149.09" height="154.65"/><path class="cls-11" d="M404.72,312.71l-9,65.4-4.24,30.74-1.56,11.29-13.07,25.48-24,46.76-46.3,5.56L225.11,383.09S182.47,301.6,247.3,309c36.35,4.16,45-28.38,45.65-57.77a219,219,0,0,0-4-44.1l64.82,31.49q-2.26,10.53-3.4,19.35c-3.16,24.06-.54,39.06,4.94,48.15C369.9,330.33,404.72,312.71,404.72,312.71Z"/><path class="cls-5" d="M353.79,238.63q-2.27,10.53-3.4,19.35a75.75,75.75,0,0,1-20.68,2.88A74.66,74.66,0,0,1,293,251.25a219,219,0,0,0-4-44.1Z"/><circle class="cls-11" cx="329.71" cy="183.99" r="75.01"/><path class="cls-12" d="M429.73,610.9,121.35,635l50-58.34c53.65-32.78,53.19-77.84,46.06-105.79a108.71,108.71,0,0,0-9.95-25.71l106.59.5h.9l8.76,19.91.4.9,6.52,14.81,22.22-39.82L360.58,429l4.32-7s63.9-14.82,64.82,23.15a101.72,101.72,0,0,1-.51,13.06c-3.18,30.56-19.9,50.88-33.75,64.73C379.72,538.67,429.73,610.9,429.73,610.9Z"/><path class="cls-12" d="M392.9,529.54c-2.26,9,3.44,24.47,11,39.66-36.25,3.9-76,1.87-76,1.87l-40.79,11.12L172.29,615.53c-5-6.47-9-14.6-12.31-23.76l11.38-13.28c35.81-21.88,47.51-49.23,49.22-73.31a103.11,103.11,0,0,0-3.16-32.49A108.7,108.7,0,0,0,207.48,447l106.59.5h.9l8.76,19.91.4.9,6.52,14.81,22.22-39.82,7.71-12.46,4.32-7S428.8,409,429.73,447a101.72,101.72,0,0,1-.51,13.06c-3.18,30.56-19.9,50.88-33.75,64.73A9.93,9.93,0,0,0,392.9,529.54Z"/><path class="cls-11" d="M633.46,577.56c-1.85,22.22-55.56-7.41-55.56-7.41s-16.67-5.56-73.16-41.67a172.44,172.44,0,0,1-65-75.89,109,109,0,0,1-5.41-14.86L473.25,409l11.35,17.35L522.33,484l55.56,37S635.31,555.34,633.46,577.56Z"/><polygon class="cls-13" points="1127.96 650.72 60.23 650.72 167.12 619.09 434.34 540.01 604.74 489.58 824.22 489.58 1127.96 650.72"/><polygon class="cls-13" points="60.23 650.72 57.45 699.8 1129.81 699.8 1127.96 650.72 60.23 650.72"/><polygon class="cls-5" points="60.23 650.72 57.45 699.8 1129.81 699.8 1127.96 650.72 60.23 650.72"/><path class="cls-9" d="M340.16,581.31l225.69-23.19,2.78,44.45L465.47,612.8a67.32,67.32,0,0,1-21.22-1.65L340,584.21a1.48,1.48,0,0,1,.19-2.9Z"/><path class="cls-14" d="M340.16,581.31l225.69-23.19,2.78,44.45L465.47,612.8a67.32,67.32,0,0,1-21.22-1.65L340,584.21a1.48,1.48,0,0,1,.19-2.9Z"/><path class="cls-9" d="M340.16,580.38l227.55-23.19,2.78,44.45L467.32,610a67.27,67.27,0,0,1-21.21-1.62L340,583.29a1.48,1.48,0,0,1,.19-2.91Z"/><path class="cls-15" d="M394.11,582l120.32-12.26,1.47,23.5-54.55,4.43a35.6,35.6,0,0,1-11.22-.87L394,583.53a.78.78,0,0,1,.1-1.53Z"/><path class="cls-5" d="M484.6,426.37c-.73,1-2,1.45-3.94,1.17-18.52-2.78-39.82,24.08-39.82,24.08l-1.07,1a109,109,0,0,1-5.41-14.86L473.25,409Z"/><path class="cls-5" d="M429.22,460c-8.71,4.85-20.7,8.33-30.05-1C383,442.85,354.71,445,353,445.1c2.89-.4,5.45-6.34,7.63-14.3l4.32-7S428.8,409,429.73,447A100.79,100.79,0,0,1,429.22,460Z"/><path class="cls-5" d="M395.7,378.11l-5.8,42-13.07,25.48A79.83,79.83,0,0,0,352,443.26c9.21-1.27,15.16-58.82,15.16-58.82l.53-.12Z"/><path class="cls-12" d="M480.66,425.69c-18.52-2.78-39.82,24.08-39.82,24.08s-25,24.08-41.67,7.41C383,441,354.71,443.18,353,443.28c9.21-1.28,15.16-58.83,15.16-58.83l.53-.12,88.87-19.76s5.3,8.12,11.28,18.46C479.58,401.66,492.58,427.48,480.66,425.69Z"/><path class="cls-5" d="M458.43,388.65c.93,1.85-14.82,11.11-22.22,8.33s-25.93,12-27.78,13.89-43.52-2.78-43.52-2.78a196.63,196.63,0,0,0,3.73-23.76l88.87-19.76s5.3,8.12,11.28,18.46C463.26,385.3,458,387.74,458.43,388.65Z"/><path class="cls-5" d="M404.72,312.71l-9,65.4-4.24,30.74c-12.42-.93-27.48-2.6-27.48-2.6s15.74-65.75-10.19-100c0,0,.55,0,1.54-.1C369.9,330.33,404.72,312.71,404.72,312.71Z"/><path class="cls-12" d="M354.72,306.23s47.23-3.7,65.75,9.26,45.38,51.86,45.38,51.86l14.82,9.26s-23.15,8.33-22.22,10.19-14.82,11.11-22.22,8.33-25.93,12-27.78,13.89-43.52-2.78-43.52-2.78S380.65,340.49,354.72,306.23Z"/><path class="cls-8" d="M695.94,561.35c-10.72-.26-262.75-6.8-286.81-33.64-25.62-28.58-.75-110.93,20.19-170.39,22.79-64.73-4.38-157.68-4.65-158.74l1.79-.47c.28,1.07,27.59,94.56,4.61,159.82-32.57,92.51-39.3,147.64-20.56,168.54,23.54,26.25,282.86,33,285.48,33Z"/><path class="cls-9" d="M521.7,330.61l233.14-3.54A22.75,22.75,0,0,1,775.16,352c0,.14,0,.27,0,.41l-26.45,220.2a22.73,22.73,0,0,1-21.21,20L489.16,607.36a22.74,22.74,0,0,1-23.86-26l31.64-231.42A22.74,22.74,0,0,1,521.7,330.61Z"/><path class="cls-14" d="M521.7,330.61l233.14-3.54A22.75,22.75,0,0,1,775.16,352c0,.14,0,.27,0,.41l-26.45,220.2a22.73,22.73,0,0,1-21.21,20L489.16,607.36a22.74,22.74,0,0,1-23.86-26l31.64-231.42A22.74,22.74,0,0,1,521.7,330.61Z"/><path class="cls-9" d="M523.55,330.61l233.14-3.54A22.74,22.74,0,0,1,777.05,352c0,.15,0,.3,0,.45l-26.45,220.2a22.73,22.73,0,0,1-21.21,20L491,607.36a22.74,22.74,0,0,1-23.86-26L498.8,349.94A22.74,22.74,0,0,1,523.55,330.61Z"/><circle class="cls-15" cx="637.62" cy="455.78" r="11.11"/><path class="cls-5" d="M403.9,569.21c-36.25,3.9-76,1.87-76,1.87l-40.79,11.11L172.29,615.53c-5-6.47-9-14.6-12.31-23.76l11.38-13.28c35.81-21.88,47.51-49.23,49.22-73.31,3.06,23.95,3.57,45.52,3.57,45.52l46.3-4.63,67.27-16a60.66,60.66,0,0,1,14.14-1.65c8.76,0,24.35.19,41,1.09C390.64,538.52,396.34,554,403.9,569.21Z"/><path class="cls-5" d="M454.73,557.19c-21.3,25-130.57,19.45-130.57,19.45l-40.75,11.11L168.58,621.08c-.5-.65-1-1.31-1.46-2L434.35,540C451.41,543.44,461.88,548.8,454.73,557.19Z"/><path class="cls-11" d="M454.73,555.34c-21.3,25-130.57,19.45-130.57,19.45l-40.75,11.1L168.58,619.23c-27-35-26.4-118.41-24.93-152.15.4-9.06.85-14.54.85-14.54s38.89-24.08,56.49,0c3.14,4.29,5.77,10.29,8,17.25,10.21,32.09,11.46,84.61,11.46,84.61l46.3-4.63,67.27-16a60.74,60.74,0,0,1,14.15-1.65C376.05,532.2,473,533.88,454.73,555.34Z"/><path class="cls-5" d="M209,469.8c-5.91-1.28-13.08-1-22.8,3.12-19.45,8.33-34.26,6.48-34.26,6.48s1.19-9.45-8.26-12.32c.4-9.06.85-14.54.85-14.54s38.89-24.08,56.49,0C204.11,456.83,206.76,462.83,209,469.8Z"/><path class="cls-5" d="M324.11,468.29h0c-.62.13-8.95,1.7-25-1.86-16.67-3.7-23.15,3.7-32.41,7.41s-33.29,5.56-42.59,1.86c-2.19-.88-4.39-2-6.72-3a108.69,108.69,0,0,0-9.91-25.7l106.59.5,9.66,19.91Z"/><path class="cls-12" d="M324.11,466.44s-8.33,1.85-25-1.85S276,468.29,266.7,472s-33.34,5.56-42.6,1.85-18.52-11.11-38-2.78-34.26,6.48-34.26,6.48,1.85-14.82-17.59-13-32.41-7.41-32.41-7.41l20.66-47.72,6.2-14.33L283.64,384.5h.74Z"/><path class="cls-5" d="M299.11,422c-10.19-16.67-63.9-1.85-63.9-1.85s-25.93,7.41-31.49-6.48S158.4,409,158.4,409s-28.85,10.82-35.83.44l6.2-14.33L283.64,384.5Z"/><path class="cls-12" d="M254.7,312.71s-50.93-10.19-75,2.78-42.59,41.67-42.59,41.67l-35.2,32.41s13.89,6.48,20.37,17.59,36.12,0,36.12,0,39.82-9.26,45.38,4.63,31.49,6.48,31.49,6.48,53.71-14.82,63.9,1.85Z"/><path class="cls-5" d="M313.41,75.43c-6.9-1.16-14-2.29-20.84-.8-11.28,2.45-19.88,11.6-26.21,21.24s-11.25,20.34-19.06,28.83c-5.23,5.69-11.66,10.26-16.32,16.42-6.86,9.07-9.25,20.64-11.46,31.8-3.24,16.38-6.49,33-5.06,49.67.72,8.36,2.62,16.59,3.07,25,.91,16.89-4.08,33.47-9,49.65-3.41,11.18-6.93,22.57-13.67,32.12-4.47,6.33-10.2,11.63-15.66,17.12a9.57,9.57,0,0,0-2.87,4.21c-1.18,4.78,4.59,8,9,10.16,13.49,6.73,22.34,19.86,32.83,30.68s25.5,20.11,39.93,15.77c4.28-1.29,8.34-3.74,12.8-3.66,3,.05,5.88,1.27,8.73,2.27a65.57,65.57,0,0,0,22.07,3.7,8.57,8.57,0,0,0,4.79-1c2.23-1.51,2.66-4.55,2.88-7.23,1.41-16.82,2.81-33.7,1.86-50.55-2.15-38.16-37.41-82.3-24-118.11,5.83-15.62,16.49-29.06,22.39-44.65,6.22-16.43,28.15-29.77,32.5-46.8.49-1.92,1.16-4,2.84-5,2.31-1.42,5.32-.18,7.55,1.36,12.62,8.7,16.73,25.06,21.32,39.68a245,245,0,0,0,13.71,34.34c3,6,9.44,12.95,15.08,9.31-2.84,25.28-19.24,47.36-22.95,72.52-3.62,24.52,5.15,49.58,1.75,74.12a76,76,0,0,1-20.45,42,101.74,101.74,0,0,0,37.83.34c12.69-2.29,26.27-8.3,30.85-20.36,5-13.27-2.73-27.51-6.66-41.15-9.43-32.79-8.7-71.57-5.71-105.56,3.08-35,7.7-65.55-.13-99.75-1.92-8.39-3.87-16.85-7.55-24.63-7.74-16.35-23.66-28-41.11-32.17-9-2.12-18.18,1.17-26.56-.39-4.22-.79-8-4.83-12.1-6.47C324.56,77.31,318.92,76.35,313.41,75.43Z"/><path class="cls-10" d="M429.59,387.66C425,399.72,411.43,405.73,398.73,408a102,102,0,0,1-37.83-.34,76.07,76.07,0,0,0,20.45-42c3.41-24.55-5.36-49.61-1.75-74.12,3.71-25.17,20.11-47.25,22.95-72.53-5.64,3.64-12.13-3.28-15.09-9.31a245.52,245.52,0,0,1-13.71-34.34c-4.59-14.62-8.7-31-21.32-39.68-2.23-1.54-5.24-2.78-7.55-1.35-1.69,1-2.35,3.11-2.84,5-4.34,17-26.28,30.36-32.49,46.79-5.91,15.59-16.57,29-22.4,44.65-13.36,35.8,21.9,79.94,24,118.1.94,16.85-.46,33.74-1.86,50.55-.23,2.69-.66,5.73-2.89,7.24a8.54,8.54,0,0,1-4.78,1,65.21,65.21,0,0,1-22-3.68c-2.85-1-5.71-2.22-8.73-2.27-4.46-.07-8.52,2.38-12.8,3.66-14.43,4.34-29.45-4.95-39.93-15.77S198.79,365.69,185.31,359c-4.41-2.2-10.18-5.38-9-10.17a9.77,9.77,0,0,1,2.87-4.2c5.46-5.49,11.2-10.8,15.67-17.12,6.74-9.55,10.25-20.94,13.67-32.12,4.94-16.18,9.93-32.76,9-49.65-.44-8.37-2.34-16.6-3.07-25-1.44-16.64,1.82-33.28,5.06-49.66,2.2-11.16,4.59-22.73,11.46-31.8,4.67-6.16,11.09-10.73,16.33-16.42,7.82-8.49,12.72-19.19,19.06-28.84s14.94-18.79,26.22-21.24c6.83-1.49,13.94-.35,20.84.8,5.51.93,11.15,1.89,16.36,4,4.11,1.64,7.89,5.69,12.1,6.46,8.38,1.57,17.59-1.72,26.56.4,17.45,4.11,33.37,15.81,41.11,32.16a74.61,74.61,0,0,1,3.82,10c1.48,4.8,2.61,9.71,3.73,14.61.24,1,.47,2.08.69,3.11h0c6.85,32.56,2.43,56.27-.56,90.14s-3.72,79.25,5.7,112C426.86,360.14,434.63,374.39,429.59,387.66Z"/><path class="cls-16" d="M322.77,446.53s7.41,12,7.41,20.37c0,0,5.56-20.37,10.19-20.37"/><circle class="cls-5" cx="243.12" cy="418.74" r="2.78"/><circle class="cls-5" cx="243.12" cy="428" r="2.78"/><circle class="cls-5" cx="243.12" cy="437.26" r="2.78"/><circle class="cls-5" cx="243.12" cy="446.52" r="2.78"/><circle class="cls-5" cx="243.12" cy="455.78" r="2.78"/><circle class="cls-5" cx="243.12" cy="465.04" r="2.78"/><circle class="cls-5" cx="243.12" cy="474.3" r="2.78"/><circle class="cls-5" cx="243.12" cy="483.57" r="2.78"/><circle class="cls-5" cx="243.12" cy="492.83" r="2.78"/><circle class="cls-5" cx="243.12" cy="502.09" r="2.78"/><circle class="cls-5" cx="243.12" cy="511.35" r="2.78"/><circle class="cls-5" cx="243.12" cy="520.61" r="2.78"/><circle class="cls-5" cx="243.12" cy="529.87" r="2.78"/><circle class="cls-5" cx="243.12" cy="539.13" r="2.78"/><path class="cls-5" d="M232.94,418.74a2.78,2.78,0,0,1-4.55,2.14,41.13,41.13,0,0,1,3.81-4A2.73,2.73,0,0,1,232.94,418.74Z"/><path class="cls-5" d="M230.16,425.22a2.78,2.78,0,1,1,0,5.56"/><circle class="cls-5" cx="230.16" cy="437.26" r="2.78"/><circle class="cls-5" cx="230.16" cy="446.52" r="2.78"/><circle class="cls-5" cx="230.16" cy="455.78" r="2.78"/><circle class="cls-5" cx="230.16" cy="465.04" r="2.78"/><circle class="cls-5" cx="230.16" cy="474.3" r="2.78"/><circle class="cls-5" cx="230.16" cy="483.57" r="2.78"/><circle class="cls-5" cx="230.16" cy="492.83" r="2.78"/><circle class="cls-5" cx="230.16" cy="502.09" r="2.78"/><circle class="cls-5" cx="230.16" cy="511.35" r="2.78"/><circle class="cls-5" cx="230.16" cy="520.61" r="2.78"/><circle class="cls-5" cx="230.16" cy="529.87" r="2.78"/><path class="cls-5" d="M232.94,539.13a2.78,2.78,0,0,1-1.89,2.63,45.56,45.56,0,0,1-3.39-3.82,2.77,2.77,0,0,1,5.28,1.19Z"/><circle class="cls-5" cx="256.09" cy="418.74" r="2.78"/><circle class="cls-5" cx="256.09" cy="428" r="2.78"/><path class="cls-5" d="M256.09,434.48a2.78,2.78,0,1,1,0,5.56"/><circle class="cls-5" cx="256.09" cy="446.52" r="2.78"/><circle class="cls-5" cx="256.09" cy="455.78" r="2.78"/><circle class="cls-5" cx="256.09" cy="465.04" r="2.78"/><circle class="cls-5" cx="256.09" cy="474.3" r="2.78"/><circle class="cls-5" cx="256.09" cy="483.57" r="2.78"/><circle class="cls-5" cx="256.09" cy="492.83" r="2.78"/><circle class="cls-5" cx="256.09" cy="502.09" r="2.78"/><circle class="cls-5" cx="256.09" cy="511.35" r="2.78"/><circle class="cls-5" cx="256.09" cy="520.61" r="2.78"/><circle class="cls-5" cx="256.09" cy="529.87" r="2.78"/><circle class="cls-5" cx="256.09" cy="539.13" r="2.78"/><circle class="cls-5" cx="269.05" cy="418.74" r="2.78"/><circle class="cls-5" cx="269.05" cy="428" r="2.78"/><circle class="cls-5" cx="269.05" cy="437.26" r="2.78"/><circle class="cls-5" cx="269.05" cy="446.52" r="2.78"/><circle class="cls-5" cx="269.05" cy="455.78" r="2.78"/><circle class="cls-5" cx="269.05" cy="465.04" r="2.78"/><circle class="cls-5" cx="269.05" cy="474.3" r="2.78"/><circle class="cls-5" cx="269.05" cy="483.57" r="2.78"/><circle class="cls-5" cx="269.05" cy="492.83" r="2.78"/><circle class="cls-5" cx="269.05" cy="502.09" r="2.78"/><circle class="cls-5" cx="269.05" cy="511.35" r="2.78"/><circle class="cls-5" cx="269.05" cy="520.61" r="2.78"/><circle class="cls-5" cx="269.05" cy="529.87" r="2.78"/><circle class="cls-5" cx="269.05" cy="539.13" r="2.78"/><circle class="cls-5" cx="282.02" cy="418.74" r="2.78"/><circle class="cls-5" cx="282.02" cy="428" r="2.78"/><circle class="cls-5" cx="282.02" cy="437.26" r="2.78"/><circle class="cls-5" cx="282.02" cy="446.52" r="2.78"/><circle class="cls-5" cx="282.02" cy="455.78" r="2.78"/><circle class="cls-5" cx="282.02" cy="465.04" r="2.78"/><circle class="cls-5" cx="282.02" cy="474.3" r="2.78"/><circle class="cls-5" cx="282.02" cy="483.57" r="2.78"/><circle class="cls-5" cx="282.02" cy="502.09" r="2.78"/><circle class="cls-5" cx="282.02" cy="511.35" r="2.78"/><circle class="cls-5" cx="282.02" cy="520.61" r="2.78"/><circle class="cls-5" cx="282.02" cy="529.87" r="2.78"/><circle class="cls-5" cx="282.02" cy="539.13" r="2.78"/><path class="cls-5" d="M296.76,420.88a2.78,2.78,0,0,1-3.91-.37,2.81,2.81,0,0,1-.64-1.77,2.73,2.73,0,0,1,.74-1.88c.36.32.71.67,1.06,1C295,418.84,295.88,419.84,296.76,420.88Z"/><circle class="cls-5" cx="294.98" cy="428" r="2.78"/><circle class="cls-5" cx="294.98" cy="437.26" r="2.78"/><circle class="cls-5" cx="294.98" cy="446.52" r="2.78"/><circle class="cls-5" cx="294.98" cy="455.78" r="2.78"/><circle class="cls-5" cx="294.98" cy="465.04" r="2.78"/><circle class="cls-5" cx="294.98" cy="474.3" r="2.78"/><circle class="cls-5" cx="294.98" cy="483.57" r="2.78"/><circle class="cls-5" cx="294.98" cy="492.83" r="2.78"/><circle class="cls-5" cx="294.98" cy="502.09" r="2.78"/><circle class="cls-5" cx="294.98" cy="511.35" r="2.78"/><circle class="cls-5" cx="294.98" cy="520.61" r="2.78"/><circle class="cls-5" cx="294.98" cy="529.87" r="2.78"/><path class="cls-5" d="M297.49,537.93a45.56,45.56,0,0,1-3.39,3.82,2.78,2.78,0,1,1,3.39-3.82Z"/><circle class="cls-5" cx="281.94" cy="492.83" r="3.7"/><circle class="cls-14" cx="436.2" cy="608.12" r="1.39"/><path class="cls-9" d="M417.78,144.31c-15.29-27.55-46.33-46.44-82-46.44-50.8,0-92.14,38.22-92.14,85.2h-6.53c0-50.55,44.25-91.68,98.62-91.68,31.48,0,59.56,13.78,77.63,35.2,1.48,4.8,2.61,9.71,3.73,14.61C417.34,142.25,417.57,143.28,417.78,144.31Z"/><path class="cls-8" d="M250.89,156h8.53v59h-8.53a24.57,24.57,0,0,1-24.56-24.56v-9.82A24.57,24.57,0,0,1,250.83,156Z"/><rect class="cls-9" x="252.18" y="156.05" width="14.48" height="58.95" rx="6.03" ry="6.03"/><path class="cls-3" d="M801.83,579.91s-15.88-5.38-23.52,8.61a25.51,25.51,0,0,0,.34,24.57c5,9.07,15.36,20.85,35,19.8,16.62-.89,22.15-13.57,23.65-25.37a26.06,26.06,0,0,0-34.61-27.9Z"/><path class="cls-17" d="M782,614.35a25.51,25.51,0,0,1-.34-24.57c7.64-14,23.52-8.61,23.52-8.61l.81-.29a25.84,25.84,0,0,1,18.66.42,25.83,25.83,0,0,0-22-2.1l-.81.29s-15.88-5.38-23.52,8.61a25.51,25.51,0,0,0,.34,24.57c3.31,6,8.92,13.11,18,17A39.32,39.32,0,0,1,782,614.35Z"/><path class="cls-14" d="M793.63,586.64s5.89,4.63,20.18,0"/><path class="cls-3" d="M792.37,553s10.09,27.33,9.25,34.48l8-.84s-13.51-24-10.1-33.64Z"/><path class="cls-14" d="M792.37,553s10.09,27.33,9.25,34.48l8-.84s-13.51-24-10.1-33.64Z"/><path class="cls-3" d="M833.56,555.28s-15.88-8.12-23-1.41-8.2,23.86-8.2,23.86S828.27,581.3,833.56,555.28Z"/><path class="cls-17" d="M833.56,555.28s-15.88-8.12-23-1.41-8.2,23.86-8.2,23.86S828.27,581.3,833.56,555.28Z"/><path class="cls-18" d="M802.37,577.73s4.17-19.91,31.19-22.45"/></svg>