<svg width="576" height="384" xmlns="http://www.w3.org/2000/svg"><path d="M288 80a110.94 110.94 0 0 0-31.24 5 55.4 55.4 0 0 1 7.24 27c0 30.928-25.072 56-56 56a55.4 55.4 0 0 1-27-7.24c-13.321 46.2 4.415 95.742 44.032 122.99 39.616 27.249 92.224 26.09 130.603-2.877 38.378-28.967 53.915-79.241 38.572-124.81C378.864 110.493 336.083 79.855 288 80zm284.52 97.4C518.29 71.59 410.93 0 288 0 165.07 0 57.68 71.64 3.48 177.41a32.35 32.35 0 0 0 0 29.19C57.71 312.41 165.07 384 288 384c122.93 0 230.32-71.64 284.52-177.41a32.35 32.35 0 0 0 0-29.19zM288 336c-98.65 0-189.09-55-237.93-144C98.91 103 189.34 48 288 48s189.09 55 237.93 144C477.1 281 386.66 336 288 336z" fill="#FFF"/></svg>