<svg xmlns="http://www.w3.org/2000/svg" viewBox="0 0 640 512"><path d="M622.3 153.2L343.4 67.5a79.43 79.43 0 0 0-46.8 0L17.7 153.2c-23.5 7.2-23.5 38.4 0 45.6l48.6 14.9c-10.7 13.2-17.2 29.3-17.9 46.9C38.8 266.1 32 276.1 32 288c0 10.8 5.7 19.9 13.9 25.6L20.3 428.5c-2.2 10 5.4 19.5 15.6 19.5H92c10.2 0 17.8-9.5 15.6-19.5L82.1 313.6C90.3 307.9 96 298.8 96 288c0-11.6-6.5-21.2-15.7-26.9.8-15 8.4-28.3 20.7-36.7l195.6 60.1c9.1 2.8 26.4 6.2 46.8 0l279-85.7c23.5-7.2 23.5-38.4-.1-45.6zM352.8 315.1c-28.5 8.8-52.8 3.9-65.6 0l-145-44.5L128 384c0 35.4 86 64 192 64s192-28.6 192-64l-14.2-113.5-145 44.6z" fill="#3c3c3c"/></svg>