<svg data-name="Layer 1" xmlns="http://www.w3.org/2000/svg" viewBox="0 0 435 491"><path d="M0 491V0h435v491zm233.41-298.4l-1.14-.68c.48-1.78.82-3.61 1.48-5.32 6.71-17.63 12.6-35.48 14.34-54.41 2.3-25.08-2.53-48.07-20-67.35C203.85 38 172.64 28.94 137.84 31c-35.92 2.08-66.46 17.21-91.77 42.51C9.63 109.93-5.71 153.65 5.9 204.35c7.48 32.68 27.17 56.51 61 65.73 16.22 4.42 31.65 2.8 45.27-8.39 13.08-10.74 19.83-36.43-4.54-48.83-5.34-2.72-11-4.83-16.17-7.85-12.14-7.1-19.68-17.56-20.08-31.91-.86-30.31 13.7-52.18 39-67.26 12.93-7.71 27.07-11.23 42.16-6.35 15.52 5 25.44 19.51 22.74 33.87-1.41 7.51-3 15.11-5.82 22.2-15.64 40-31.63 79.88-47.54 119.78-11.84 29.69-24 59.27-35.42 89.12a29.59 29.59 0 0 0-1.12 17c5.44 20.76 20.5 24.88 39.32 21.18 15.22-3 24.86-14 31.15-27.4 7.48-16 14.09-32.34 20.8-48.65 11.84-28.8 23.45-57.7 35.19-86.55a45.21 45.21 0 0 1 2.38-4.21 40.43 40.43 0 0 1 2.43 4.43q25.92 69.5 51.8 139c6.77 18.08 13.43 36.23 21 54 5.06 11.9 12.19 22.7 24.59 28.52C325 467 337 468.41 349 468.54c16.5.17 33 0 49.5 0 1.75 0 3.51-.17 5.49-.28v-65.8c-11.08 0-21.4.18-31.72 0-16.35-.35-25.72-7.13-31.23-22.33-6.4-17.66-12.68-35.36-19.11-53-10.49-28.79-20.91-57.6-31.74-86.26-1.85-4.9-1-7.92 2.38-11.44q33.29-34.85 66.34-69.92c20.39-21.52 41-42.84 61-64.7 4.83-5.27 8.46-12 11.32-18.62 5.06-11.73 3.26-23-5.66-32.42-9.28-9.84-20.8-11.22-33.15-7.33-11.77 3.71-21.12 11.34-29.46 20.05-16.45 17.18-32.47 34.77-48.82 52q-38.27 40.51-76.8 80.72c-1.19 1.25-2.61 2.27-3.93 3.39z" fill="#fff"/><path d="M233.41 192.6c1.31-1.13 2.74-2.15 3.93-3.4q38.46-40.31 76.84-80.69c16.36-17.27 32.37-34.86 48.82-52 8.34-8.71 17.69-16.34 29.46-20.05 12.35-3.89 23.87-2.52 33.15 7.33 8.91 9.45 10.72 20.69 5.66 32.42-2.86 6.63-6.5 13.35-11.32 18.62-20 21.86-40.63 43.18-61 64.7q-33.15 35-66.34 69.92c-3.36 3.52-4.23 6.54-2.38 11.44 10.83 28.66 21.25 57.47 31.74 86.26 6.43 17.65 12.71 35.35 19.11 53 5.51 15.19 14.88 22 31.23 22.33 10.32.22 20.64 0 31.72 0v65.8c-2 .1-3.74.27-5.49.28-16.5 0-33 .15-49.5 0C337 468.41 325 467 314 461.76c-12.4-5.82-19.54-16.62-24.59-28.52-7.55-17.76-14.2-35.91-21-54q-26-69.47-51.8-139a40.43 40.43 0 0 0-2.43-4.43 45.21 45.21 0 0 0-2.38 4.21c-11.74 28.85-23.35 57.74-35.19 86.55-6.7 16.31-13.31 32.69-20.8 48.65-6.29 13.41-15.93 24.41-31.15 27.4-18.82 3.7-33.88-.42-39.32-21.18a29.59 29.59 0 0 1 1.12-17C97.89 334.58 110 305 121.88 275.31c15.92-39.9 31.9-79.77 47.54-119.78 2.77-7.08 4.41-14.69 5.82-22.2 2.7-14.37-7.22-28.85-22.74-33.87-15.09-4.88-29.23-1.37-42.16 6.35-25.27 15.08-39.83 36.94-39 67.26.41 14.34 7.95 24.81 20.08 31.91 5.15 3 10.83 5.13 16.17 7.85 24.37 12.4 17.61 38.09 4.54 48.83-13.62 11.19-29.05 12.81-45.27 8.39-33.82-9.21-53.5-33-61-65.73-11.61-50.7 3.72-94.41 40.17-130.84 25.31-25.3 55.86-40.43 91.77-42.51 34.79-2 66 7 90.28 33.89 17.43 19.28 22.26 42.27 20 67.35-1.73 18.93-7.63 36.78-14.34 54.41-.65 1.71-1 3.55-1.48 5.32z" fill="#3c3c3c"/></svg>