<?xml version="1.0" standalone="no"?>
<!DOCTYPE svg PUBLIC "-//W3C//DTD SVG 20010904//EN"
 "http://www.w3.org/TR/2001/REC-SVG-20010904/DTD/svg10.dtd">
<svg version="1.0" xmlns="http://www.w3.org/2000/svg"
 width="260.000000pt" height="260.000000pt" viewBox="0 0 260.000000 260.000000"
 preserveAspectRatio="xMidYMid meet">
<metadata>
Created by potrace 1.11, written by Peter Selinger 2001-2013
</metadata>
<g transform="translate(0.000000,260.000000) scale(0.100000,-0.100000)"
fill="#000000" stroke="none">
<path d="M1158 2585 c-2 -2 -23 -6 -48 -10 -353 -50 -680 -259 -888 -566 -80
-118 -153 -298 -188 -459 -19 -90 -25 -364 -10 -445 56 -295 160 -503 352
-701 302 -311 727 -448 1149 -373 267 48 492 166 685 360 108 108 177 204 243
334 55 110 80 183 113 330 27 119 28 328 3 468 -48 267 -166 494 -355 683
-190 189 -402 303 -669 360 -69 15 -376 30 -387 19z"/>
</g>
</svg>
